<svg width="51" height="39" viewBox="0 0 51 39" fill="none" xmlns="http://www.w3.org/2000/svg" xmlns:c2pa="http://c2pa.org/manifest"><metadata><c2pa:manifest>AAAWgmp1bWIAAAAeanVtZGMycGEAEQAQgAAAqgA4m3EDYzJwYQAAABZcanVtYgAAAEdqdW1kYzJtYQARABCAAACqADibcQN1cm46YzJwYTowM2E0MzExNC1mYWU0LTRlYjUtOTBhMy05MjM1ZTY0NWY0M2YAAAADl2p1bWIAAAApanVtZGMyYXMAEQAQgAAAqgA4m3EDYzJwYS5hc3NlcnRpb25zAAAAALxqdW1iAAAARGp1bWRjYm9yABEAEIAAAKoAOJtxE2MycGEuaW5ncmVkaWVudC52MwAAAAAYYzJzaB7WP6OK1aAv42tMkfd0U4IAAABwY2JvcqNpZGM6Zm9ybWF0bWltYWdlL3N2Zyt4bWxqaW5zdGFuY2VJRHgseG1wOmlpZDo3YmViNmM5Zi0wODA2LTQ3NWYtYmNmNC0wMDcyNTBjYzI4ZTRscmVsYXRpb25zaGlwaHBhcmVudE9mAAAB4mp1bWIAAABBanVtZGNib3IAEQAQgAAAqgA4m3ETYzJwYS5hY3Rpb25zLnYyAAAAABhjMnNozBEqZ6jnm/5vzcxvw7SXRAAAAZljYm9yomdhY3Rpb25zgqJmYWN0aW9ua2MycGEub3BlbmVkanBhcmFtZXRlcnOha2luZ3JlZGllbnRzgaJjdXJseC1zZWxmI2p1bWJmPWMycGEuYXNzZXJ0aW9ucy9jMnBhLmluZ3JlZGllbnQudjNkaGFzaFggVUcNcq6Ou5h6fOpM5LWRupWx9QBjFpdahXlFmTbcHCKkZmFjdGlvbngdY29tLmFudGhyb3BpYy5jbGF1ZGUucHJvdmlkZWRqcGFyYW1ldGVyc6F4H2NvbS5hbnRocm9waWMub3JpZ2luLWNvbmZpZGVuY2VndW5rbm93bmtkZXNjcmlwdGlvbnhmQ2xhdWRlIHByb3ZpZGVkIHRoaXMgZmlsZSBhdCB0aGUgcmVxdWVzdCBvZiBhIHVzZXIgYW5kIG1heSBoYXZlIGNyZWF0ZWQgb3IgbW9kaWZpZWQgdGhlIGZpbGUgY29udGVudHMubXNvZnR3YXJlQWdlbnShZG5hbWVmQ2xhdWRlcmFsbEFjdGlvbnNJbmNsdWRlZPUAAADIanVtYgAAAEBqdW1kY2JvcgARABCAAACqADibcRNjMnBhLmhhc2guZGF0YQAAAAAYYzJzaB3eL5g3eLYgBwoG+xDNKU0AAACAY2JvcqVjYWxnZnNoYTI1NmNwYWRNAAAAAAAAAAAAAAAAAGRoYXNoWCBrWykRX25pYJqocKf7MX/TA+J0SOzZ1/LpdRiL/+MBH2RuYW1lbmp1bWJmIG1hbmlmZXN0amV4Y2x1c2lvbnOBomVzdGFydBieZmxlbmd0aBkeBAAAAj5qdW1iAAAAJ2p1bWRjMmNsABEAEIAAAKoAOJtxA2MycGEuY2xhaW0udjIAAAACD2Nib3KlY2FsZ2ZzaGEyNTZpc2lnbmF0dXJleE1zZWxmI2p1bWJmPS9jMnBhL3VybjpjMnBhOjAzYTQzMTE0LWZhZTQtNGViNS05MGEzLTkyMzVlNjQ1ZjQzZi9jMnBhLnNpZ25hdHVyZWppbnN0YW5jZUlEeCx4bXA6aWlkOmU5OWM4N2NhLWFhM2UtNGJmYS05NGQ5LTRhZjZlN2MwMDQ1MnJjcmVhdGVkX2Fzc2VydGlvbnODomN1cmx4LXNlbGYjanVtYmY9YzJwYS5hc3NlcnRpb25zL2MycGEuaW5ncmVkaWVudC52M2RoYXNoWCBVRw1yro67mHp86kzktZG6lbH1AGMWl1qFeUWZNtwcIqJjdXJseCpzZWxmI2p1bWJmPWMycGEuYXNzZXJ0aW9ucy9jMnBhLmFjdGlvbnMudjJkaGFzaFggEMFZzEM2DVNShE78xoukaBeBjKMu7JXqpUUTJg9Y9rmiY3VybHgpc2VsZiNqdW1iZj1jMnBhLmFzc2VydGlvbnMvYzJwYS5oYXNoLmRhdGFkaGFzaFggJX//Y+/41dKGCl5KqPV4uJIxTSp5TNef9lPMWXplood0Y2xhaW1fZ2VuZXJhdG9yX2luZm+jZG5hbWVvQW50aHJvcGljIEZpbGVzZ3ZlcnNpb25lMS4wLjBrc3BlY1ZlcnNpb25lMi40LjAAABA4anVtYgAAAChqdW1kYzJjcwARABCAAACqADibcQNjMnBhLnNpZ25hdHVyZQAAABAIY2JvctKEWQISogEmGCFZAgowggIGMIIBjaADAgECAhRA5aAK7sI50L64g/oGQgU9Z1UTADAKBggqhkjOPQQDAzBJMRcwFQYDVQQKEw5BbnRocm9waWMsIFBCQzEuMCwGA1UEAxMlQW50aHJvcGljIENvbnRlbnQgQ3JlZGVudGlhbHMgUm9vdCBDQTAeFw0yNjA4MDcxODQzNTZaFw0yODA4MDYxOTQzNTZaMEQxFzAVBgNVBAoTDkFudGhyb3BpYywgUEJDMSkwJwYDVQQDEyBBbnRocm9waWMgQ2xhdWRlIENvbnRlbnQgU2lnbmluZzBZMBMGByqGSM49AgEGCCqGSM49AwEHA0IABJh6CmvLUBgFFNU0vUKlOVtE6djd17L5SuwX0LemFisBM3dkd/3cyjxFA3Qo5S46fX0/ihY0VZ7mfb9KF703t5OjWDBWMA4GA1UdDwEB/wQEAwIHgDAVBgNVHSUEDjAMBgorBgEEAYPoXgIBMAwGA1UdEwEB/wQCMAAwHwYDVR0jBBgwFoAUzlHiBIFOZFsj+OPEz5o+nMHXXMIwCgYIKoZIzj0EAwMDZwAwZAIwMXMdFJ4BetLLVY7ORuE9noqbbAZOZn/aArXyTwFAZfKrPzxF2vPoJNf1+UCdg1XGAjBwX1zd9WGqYkqmL5SFqw1QySjr1zJfpJM9+1rdDwSPLMOPOjKuiXjoU/pUUeG9RwmhY3BhZFkNngAAAAAAAAAAAAAAAAAAAAAAAAAAAAAAAAAAAAAAAAAAAAAAAAAAAAAAAAAAAAAAAAAAAAAAAAAAAAAAAAAAAAAAAAAAAAAAAAAAAAAAAAAAAAAAAAAAAAAAAAAAAAAAAAAAAAAAAAAAAAAAAAAAAAAAAAAAAAAAAAAAAAAAAAAAAAAAAAAAAAAAAAAAAAAAAAAAAAAAAAAAAAAAAAAAAAAAAAAAAAAAAAAAAAAAAAAAAAAAAAAAAAAAAAAAAAAAAAAAAAAAAAAAAAAAAAAAAAAAAAAAAAAAAAAAAAAAAAAAAAAAAAAAAAAAAAAAAAAAAAAAAAAAAAAAAAAAAAAAAAAAAAAAAAAAAAAAAAAAAAAAAAAAAAAAAAAAAAAAAAAAAAAAAAAAAAAAAAAAAAAAAAAAAAAAAAAAAAAAAAAAAAAAAAAAAAAAAAAAAAAAAAAAAAAAAAAAAAAAAAAAAAAAAAAAAAAAAAAAAAAAAAAAAAAAAAAAAAAAAAAAAAAAAAAAAAAAAAAAAAAAAAAAAAAAAAAAAAAAAAAAAAAAAAAAAAAAAAAAAAAAAAAAAAAAAAAAAAAAAAAAAAAAAAAAAAAAAAAAAAAAAAAAAAAAAAAAAAAAAAAAAAAAAAAAAAAAAAAAAAAAAAAAAAAAAAAAAAAAAAAAAAAAAAAAAAAAAAAAAAAAAAAAAAAAAAAAAAAAAAAAAAAAAAAAAAAAAAAAAAAAAAAAAAAAAAAAAAAAAAAAAAAAAAAAAAAAAAAAAAAAAAAAAAAAAAAAAAAAAAAAAAAAAAAAAAAAAAAAAAAAAAAAAAAAAAAAAAAAAAAAAAAAAAAAAAAAAAAAAAAAAAAAAAAAAAAAAAAAAAAAAAAAAAAAAAAAAAAAAAAAAAAAAAAAAAAAAAAAAAAAAAAAAAAAAAAAAAAAAAAAAAAAAAAAAAAAAAAAAAAAAAAAAAAAAAAAAAAAAAAAAAAAAAAAAAAAAAAAAAAAAAAAAAAAAAAAAAAAAAAAAAAAAAAAAAAAAAAAAAAAAAAAAAAAAAAAAAAAAAAAAAAAAAAAAAAAAAAAAAAAAAAAAAAAAAAAAAAAAAAAAAAAAAAAAAAAAAAAAAAAAAAAAAAAAAAAAAAAAAAAAAAAAAAAAAAAAAAAAAAAAAAAAAAAAAAAAAAAAAAAAAAAAAAAAAAAAAAAAAAAAAAAAAAAAAAAAAAAAAAAAAAAAAAAAAAAAAAAAAAAAAAAAAAAAAAAAAAAAAAAAAAAAAAAAAAAAAAAAAAAAAAAAAAAAAAAAAAAAAAAAAAAAAAAAAAAAAAAAAAAAAAAAAAAAAAAAAAAAAAAAAAAAAAAAAAAAAAAAAAAAAAAAAAAAAAAAAAAAAAAAAAAAAAAAAAAAAAAAAAAAAAAAAAAAAAAAAAAAAAAAAAAAAAAAAAAAAAAAAAAAAAAAAAAAAAAAAAAAAAAAAAAAAAAAAAAAAAAAAAAAAAAAAAAAAAAAAAAAAAAAAAAAAAAAAAAAAAAAAAAAAAAAAAAAAAAAAAAAAAAAAAAAAAAAAAAAAAAAAAAAAAAAAAAAAAAAAAAAAAAAAAAAAAAAAAAAAAAAAAAAAAAAAAAAAAAAAAAAAAAAAAAAAAAAAAAAAAAAAAAAAAAAAAAAAAAAAAAAAAAAAAAAAAAAAAAAAAAAAAAAAAAAAAAAAAAAAAAAAAAAAAAAAAAAAAAAAAAAAAAAAAAAAAAAAAAAAAAAAAAAAAAAAAAAAAAAAAAAAAAAAAAAAAAAAAAAAAAAAAAAAAAAAAAAAAAAAAAAAAAAAAAAAAAAAAAAAAAAAAAAAAAAAAAAAAAAAAAAAAAAAAAAAAAAAAAAAAAAAAAAAAAAAAAAAAAAAAAAAAAAAAAAAAAAAAAAAAAAAAAAAAAAAAAAAAAAAAAAAAAAAAAAAAAAAAAAAAAAAAAAAAAAAAAAAAAAAAAAAAAAAAAAAAAAAAAAAAAAAAAAAAAAAAAAAAAAAAAAAAAAAAAAAAAAAAAAAAAAAAAAAAAAAAAAAAAAAAAAAAAAAAAAAAAAAAAAAAAAAAAAAAAAAAAAAAAAAAAAAAAAAAAAAAAAAAAAAAAAAAAAAAAAAAAAAAAAAAAAAAAAAAAAAAAAAAAAAAAAAAAAAAAAAAAAAAAAAAAAAAAAAAAAAAAAAAAAAAAAAAAAAAAAAAAAAAAAAAAAAAAAAAAAAAAAAAAAAAAAAAAAAAAAAAAAAAAAAAAAAAAAAAAAAAAAAAAAAAAAAAAAAAAAAAAAAAAAAAAAAAAAAAAAAAAAAAAAAAAAAAAAAAAAAAAAAAAAAAAAAAAAAAAAAAAAAAAAAAAAAAAAAAAAAAAAAAAAAAAAAAAAAAAAAAAAAAAAAAAAAAAAAAAAAAAAAAAAAAAAAAAAAAAAAAAAAAAAAAAAAAAAAAAAAAAAAAAAAAAAAAAAAAAAAAAAAAAAAAAAAAAAAAAAAAAAAAAAAAAAAAAAAAAAAAAAAAAAAAAAAAAAAAAAAAAAAAAAAAAAAAAAAAAAAAAAAAAAAAAAAAAAAAAAAAAAAAAAAAAAAAAAAAAAAAAAAAAAAAAAAAAAAAAAAAAAAAAAAAAAAAAAAAAAAAAAAAAAAAAAAAAAAAAAAAAAAAAAAAAAAAAAAAAAAAAAAAAAAAAAAAAAAAAAAAAAAAAAAAAAAAAAAAAAAAAAAAAAAAAAAAAAAAAAAAAAAAAAAAAAAAAAAAAAAAAAAAAAAAAAAAAAAAAAAAAAAAAAAAAAAAAAAAAAAAAAAAAAAAAAAAAAAAAAAAAAAAAAAAAAAAAAAAAAAAAAAAAAAAAAAAAAAAAAAAAAAAAAAAAAAAAAAAAAAAAAAAAAAAAAAAAAAAAAAAAAAAAAAAAAAAAAAAAAAAAAAAAAAAAAAAAAAAAAAAAAAAAAAAAAAAAAAAAAAAAAAAAAAAAAAAAAAAAAAAAAAAAAAAAAAAAAAAAAAAAAAAAAAAAAAAAAAAAAAAAAAAAAAAAAAAAAAAAAAAAAAAAAAAAAAAAAAAAAAAAAAAAAAAAAAAAAAAAAAAAAAAAAAAAAAAAAAAAAAAAAAAAAAAAAAAAAAAAAAAAAAAAAAAAAAAAAAAAAAAAAAAAAAAAAAAAAAAAAAAAAAAAAAAAAAAAAAAAAAAAAAAAAAAAAAAAAAAAAAAAAAAAAAAAAAAAAAAAAAAAAAAAAAAAAAAAAAAAAAAAAAAAAAAAAAAAAAAAAAAAAAAAAAAAAAAAAAAAAAAAAAAAAAAAAAAAAAAAAAAAAAAAAAAAAAAAAAAAAAAAAAAAAAAAAAAAAAAAAAAAAAAAAAAAAAAAAAAAAAAAAAAAAAAAAAAAAAAAAAAAAAAAAAAAAAAAAAAAAAAAAAAAAAAAAAAAAAAAAAAAAAAAAAAAAAAAAAAAAAAAAAAAAAAAAAAAAAAAAAAAAAAAAAAAAAAAAAAAAAAAAAAAAAAAAAAAAAAAAAAAAAAAAAAAAAAAAAAAAAAAAAAAAAAAAAAAAAAAAAAAAAAAAAAAAAAAAAAAAAAAAAAAAAAAAAAAAAAAAAAAAAAAAAAAAAAAAAAAAAAAAAAAAAAAAAAAAAAAAAAAAAAAAAAAAAAAAAAAAAAAAAAAAAAAAAAAAAAAAAAAAAAAAAAAAAAAAAAAAAAAAAAAAAAAAAAAAAAAAAAAAAAAAAAAAAAAAAAAAAAAAAAAAAAAAAAAAAAAAAAAAAAAAAAAAAAAAAAAAAAAAAAAAAAAAAAAAAAAAAAAAAAAAAAAAAAAAAAAAAAAAAAAAAAAAAAAAAAAAAAAAAAAAAAAAAAAAAAAAAAAAAAAAAAAAAAAAAAAAAAAAAAAAAAAAAAAAAAAAAAAAAAAAAAAAAAAAAAAAAAAAAAAAAAAAAAAAAAAAAAAAAAAAAAAAAAAAAAAAAAAAAAAAAAAAAAAAAAAAAAAAAAAAAAAAAAAAAAAAAAAAAAAAAAAAAAAAAAAAAAAAAAAAAAAAAAAAAAAAAAAAAAAAAAAAAAAAAAAAAAAAAAAAAAAAAAAAAAAAAAAAAAAAAAAAAAAAAAAAAAAAAAAAAAAAAAAAAAAAAAAAAAAAAAAAAAAAAAAAAAAAAAAAAAAAAAAAAAAAAAAAAAAAAAAAAAAAAAAAAAAAAAAAAAAAAAAAAAAAAAAAAAAAAAAAAAAAAAAAAAAAAAAAAAAAAAAAAAAAAAAAAAAAAAAAAAAAAAAAAAAAAAAAAAAAAAAAAAAAAAAAAAAAAAAAAAAAAAAAAAAAAAAAAAAAAAAAAAAAAAAAAAAAAAAAAAAAAAAAAAAAAAAAAAAAAAAAAAAAAAAAAAAAAAAAAAAAAAAAAAAAAAAAAAAAAAAAAAAAAAAAAAAAAAAAAAAAAAAAAAAAAAAAAAAAAAAAAAAAAAAAAAAAAAAAAAAAAAAAAAAAAAAAAAAAAAAAAAAAAAAAAAAAAAAAAAAAAAAAAAAAAAAAAAAAAAAAAAAAAAAAAAAAAAAAAAAAAAAAAAAAAAAAAAAAAAAAAAAAAAAAAAAAAAAAAAAAAAAAAAAAAAAAAAAAAAAAAAAAAAAAAAAAAAAAAAAAAAAAAAAAAAAAAAAAAAAAAAAAAAAAAAAAAAAAAAAAAAAAAAAAAAAAAAAAAAAAAAAAAAAAAAAAAAAAAAAAAAAAAAAAAAAAAAAAAAAAAAAAPZYQDZ3I/4Y07w76TH1icLBcHh1jMjm8VGw86TjKBPfh6DvrSdO18xAvkw6j1flzZvUid8kAOFattWBf16f57T+LR8=</c2pa:manifest></metadata>
<g clip-path="url(#clip0_574_288)">
<path d="M45.2786 8.07854L43.2165 2.25823C42.7754 1.01332 41.3757 0.369065 40.0948 0.822885L2.32252 14.2055C1.04244 14.659 0.358902 16.0413 0.799969 17.2862L2.74797 22.7844L2.7488 22.7842L2.86291 23.1063C4.96271 22.3623 7.26054 23.4188 7.98405 25.461C8.70756 27.5031 7.58743 29.7706 5.48763 30.5145L5.60175 30.8366L5.60092 30.8369L7.54892 36.3351C7.99027 37.5808 9.39134 38.2237 10.6714 37.7702L48.4437 24.3876C49.7246 23.9338 50.4068 22.5528 49.9654 21.3071L47.9033 15.4868C45.8035 16.2308 43.506 15.175 42.7822 13.1321C42.0219 10.9861 43.072 8.86034 45.2786 8.07854ZM42.1198 13.3668C42.8918 15.5458 45.1897 16.7682 47.4523 16.3182L49.303 21.5418C49.6183 22.4316 49.1304 23.4193 48.2155 23.7434L10.4432 37.126C9.52824 37.4501 8.52657 36.9902 8.21132 36.1004L6.3606 30.8768C8.40298 29.8025 9.41845 27.4053 8.64644 25.2263C7.87443 23.0473 5.57656 21.8249 3.31308 22.2752L1.46236 17.0515C1.14711 16.1617 1.63583 15.1738 2.55076 14.8497L40.323 1.46708C41.238 1.14292 42.2388 1.60311 42.5541 2.49291L44.4028 7.7109C42.2602 8.78905 41.305 11.067 42.1198 13.3668Z" fill="#F7F6F2"/>
<path d="M12.2755 13.8411C12.0925 13.9059 11.8933 13.8143 11.8302 13.6363L11.659 13.1532C11.596 12.9752 11.6931 12.7785 11.8761 12.7137C12.0591 12.6489 12.2584 12.7405 12.3214 12.9185L12.4926 13.4016C12.5557 13.5796 12.4585 13.7762 12.2755 13.8411Z" fill="#F7F6F2"/>
<path d="M18.0394 30.1074C17.8564 30.1722 17.6571 30.0806 17.5941 29.9026L17.2648 28.9734C17.2018 28.7954 17.2989 28.5988 17.4819 28.5339C17.6649 28.4691 17.8642 28.5607 17.9272 28.7387L18.2564 29.6679C18.3195 29.8459 18.2224 30.0426 18.0394 30.1074ZM16.8868 26.8542C16.7038 26.919 16.5045 26.8274 16.4415 26.6494L16.1122 25.7202C16.0492 25.5422 16.1463 25.3456 16.3293 25.2807C16.5123 25.2159 16.7116 25.3075 16.7746 25.4855L17.1039 26.4148C17.1669 26.5927 17.0698 26.7894 16.8868 26.8542ZM15.7342 23.601C15.5512 23.6658 15.3519 23.5742 15.2889 23.3962L14.9596 22.467C14.8966 22.289 14.9937 22.0924 15.1767 22.0275C15.3597 21.9627 15.559 22.0543 15.622 22.2323L15.9513 23.1616C16.0143 23.3395 15.9172 23.5362 15.7342 23.601ZM14.5813 20.347C14.3983 20.4118 14.199 20.3202 14.136 20.1422L13.8068 19.213C13.7437 19.035 13.8408 18.8384 14.0238 18.7735C14.2068 18.7087 14.4061 18.8003 14.4691 18.9783L14.7984 19.9076C14.8614 20.0855 14.7643 20.2822 14.5813 20.347ZM13.4287 17.0938C13.2457 17.1586 13.0464 17.067 12.9834 16.889L12.6542 15.9598C12.5911 15.7818 12.6883 15.5852 12.8712 15.5204C13.0542 15.4555 13.2535 15.5472 13.3166 15.7251L13.6458 16.6544C13.7088 16.8323 13.6117 17.029 13.4287 17.0938Z" fill="#F7F6F2"/>
<path d="M19.0333 32.9153C18.8504 32.9801 18.6511 32.8885 18.588 32.7105L18.4169 32.2274C18.3538 32.0494 18.4509 31.8528 18.6339 31.7879C18.8169 31.7231 19.0162 31.8147 19.0792 31.9927L19.2504 32.4758C19.3135 32.6538 19.2163 32.8504 19.0333 32.9153Z" fill="#F7F6F2"/>
<path d="M32.3422 23.91C32.0541 24.0121 31.744 23.9443 31.5327 23.7346L29.8901 22.1024C28.9439 21.1625 27.677 20.5799 26.3242 20.4628L23.9757 20.2599C23.6729 20.2339 23.4236 20.0431 23.3246 19.7637C23.2256 19.4843 23.3 19.1788 23.518 18.9683L25.215 17.332C26.1923 16.3894 26.8099 15.1392 26.9533 13.8132L27.2019 11.511C27.2337 11.2142 27.4331 10.9668 27.7204 10.865C28.0077 10.7632 28.3187 10.8307 28.53 11.0404L30.1725 12.6726C31.1188 13.6126 32.3857 14.1951 33.7384 14.3122L36.087 14.5152C36.3897 14.5411 36.6391 14.7319 36.7381 15.0113C36.8371 15.2908 36.7627 15.5963 36.5446 15.8068L34.8476 17.443C33.8704 18.3856 33.2528 19.6358 33.1094 20.9618L32.8608 23.2641C32.8289 23.5608 32.6295 23.8082 32.3422 23.91ZM27.9484 11.5084C27.9186 11.519 27.9019 11.5403 27.8986 11.5705L27.65 13.8727C27.4897 15.3588 26.7975 16.7587 25.7023 17.8156L24.0053 19.4518C23.9822 19.4736 23.9764 19.4992 23.9867 19.5282C23.9969 19.5572 24.0184 19.5732 24.0495 19.5766L26.3981 19.7796C27.9141 19.9104 29.3327 20.5634 30.3937 21.6167L32.0362 23.249C32.0581 23.2711 32.0842 23.2764 32.114 23.2658C32.1438 23.2553 32.1605 23.2339 32.1638 23.2038L32.4123 20.9015C32.5727 19.4155 33.2649 18.0156 34.3601 16.9587L36.0571 15.3224C36.0801 15.3007 36.086 15.275 36.0754 15.2452C36.0648 15.2154 36.0436 15.2003 36.0129 15.1976L33.6643 14.9947C32.1482 14.8638 30.7296 14.2109 29.6687 13.1575L28.0261 11.5253C28.0043 11.5031 27.9782 11.4979 27.9484 11.5084Z" fill="#F7F6F2"/>
</g>
<defs>
<clipPath id="clip0_574_288">
<rect width="45" height="25" fill="white" transform="translate(0 15.0283) rotate(-19.509)"/>
</clipPath>
</defs>
</svg>
